<svg width="1652" height="483" viewBox="0 0 1652 483" fill="none" xmlns="http://www.w3.org/2000/svg">
<path d="M126.205 307.656C101.858 307.656 81.053 302.787 63.789 293.048C46.525 283.309 33.3556 269.476 24.281 251.548C15.4276 233.62 11.001 212.593 11.001 188.468C11.001 163.9 15.649 142.541 24.945 124.392C34.241 106.243 47.4103 92.188 64.453 82.228C81.717 72.0467 102.08 66.956 125.541 66.956C143.69 66.956 160.069 70.1653 174.677 76.584C189.285 83.0027 201.126 92.52 210.201 105.136C219.497 117.531 225.141 133.245 227.133 152.28H175.673C173.017 141.435 167.594 133.024 159.405 127.048C151.437 120.851 140.592 117.752 126.869 117.752C112.04 117.752 100.198 121.183 91.345 128.044C82.4916 134.684 76.073 143.205 72.089 153.608C68.3263 164.011 66.445 174.856 66.445 186.144C66.445 197.875 68.437 209.163 72.421 220.008C76.6263 230.853 83.1556 239.707 92.009 246.568C101.084 253.429 113.036 256.86 127.865 256.86C136.718 256.86 144.465 255.532 151.105 252.876C157.966 250.22 163.61 246.347 168.037 241.256C172.464 236.165 175.562 230.079 177.333 222.996H230.121C228.35 241.367 222.485 256.86 212.525 269.476C202.786 282.092 190.281 291.609 175.009 298.028C159.958 304.447 143.69 307.656 126.205 307.656ZM262.25 305V69.944H359.194C370.26 69.944 381.216 71.0507 392.062 73.264C403.128 75.256 413.199 79.0187 422.274 84.552C431.348 90.0853 438.542 97.9426 443.854 108.124C449.387 118.084 452.154 130.921 452.154 146.636C452.154 157.26 450.383 167.109 446.842 176.184C443.3 185.259 437.988 193.116 430.906 199.756C424.044 206.396 415.302 211.597 404.678 215.36L458.13 305H397.042L351.558 223.992H316.034V305H262.25ZM316.034 176.516H357.534C363.952 176.516 369.596 175.963 374.466 174.856C379.556 173.528 383.872 171.757 387.414 169.544C390.955 167.109 393.611 164.011 395.382 160.248C397.374 156.485 398.48 151.948 398.702 146.636C398.702 139.332 396.931 133.799 393.39 130.036C390.07 126.273 385.532 123.617 379.778 122.068C374.023 120.519 367.383 119.744 359.858 119.744H316.034V176.516ZM494.715 305V69.944H668.019V119.744H548.499V164.232H649.095V212.04H548.499V255.532H668.019V305H494.715ZM677.979 305L770.939 69.944H828.043L920.007 305H861.907L848.959 268.48H749.027L735.747 305H677.979ZM765.959 219.676H832.027L799.491 128.708L765.959 219.676ZM975.718 305V119.744H905.002V69.944H1100.88V119.744H1029.5V305H975.718ZM1126.29 305V69.944H1180.08V305H1126.29ZM1289.54 305L1204.55 69.944H1262.98L1325.06 259.516L1385.16 69.944H1443.59L1358.93 305H1289.54ZM1467.7 305V69.944H1641V119.744H1521.48V164.232H1622.08V212.04H1521.48V255.532H1641V305H1467.7Z" fill="#111111"/>
<path d="M546.235 452.8C541.302 452.8 536.702 452.033 532.435 450.5C528.235 448.967 524.702 446.533 521.835 443.2C519.035 439.867 517.268 435.567 516.535 430.3H531.135C531.735 432.567 532.835 434.4 534.435 435.8C536.035 437.133 537.935 438.1 540.135 438.7C542.402 439.3 544.768 439.6 547.235 439.6C549.102 439.6 550.935 439.367 552.735 438.9C554.535 438.433 556.002 437.633 557.135 436.5C558.335 435.367 558.935 433.833 558.935 431.9C558.935 430.433 558.602 429.233 557.935 428.3C557.335 427.367 556.435 426.633 555.235 426.1C554.102 425.5 552.702 424.967 551.035 424.5C549.635 424.1 548.168 423.767 546.635 423.5C545.168 423.233 543.702 422.9 542.235 422.5C540.835 422.1 539.468 421.633 538.135 421.1C535.602 420.433 533.168 419.633 530.835 418.7C528.502 417.7 526.435 416.467 524.635 415C522.835 413.467 521.402 411.567 520.335 409.3C519.335 407.033 518.835 404.3 518.835 401.1C518.835 397.633 519.402 394.7 520.535 392.3C521.735 389.9 523.302 387.933 525.235 386.4C527.235 384.8 529.435 383.567 531.835 382.7C534.302 381.833 536.768 381.233 539.235 380.9C541.702 380.567 544.035 380.4 546.235 380.4C550.835 380.4 554.968 381.2 558.635 382.8C562.302 384.4 565.302 386.8 567.635 390C569.968 393.2 571.302 397.233 571.635 402.1H557.735C557.468 400.1 556.735 398.467 555.535 397.2C554.335 395.933 552.802 395 550.935 394.4C549.135 393.8 547.102 393.5 544.835 393.5C543.368 393.5 541.935 393.633 540.535 393.9C539.135 394.167 537.868 394.6 536.735 395.2C535.668 395.733 534.802 396.467 534.135 397.4C533.535 398.333 533.235 399.467 533.235 400.8C533.235 402.133 533.602 403.3 534.335 404.3C535.068 405.233 536.135 406.067 537.535 406.8C539.002 407.467 540.702 408.1 542.635 408.7C544.635 409.367 546.735 409.9 548.935 410.3C551.135 410.7 553.235 411.233 555.235 411.9C557.768 412.567 560.135 413.367 562.335 414.3C564.535 415.167 566.468 416.3 568.135 417.7C569.802 419.033 571.102 420.767 572.035 422.9C572.968 424.967 573.435 427.533 573.435 430.6C573.435 434.667 572.668 438.133 571.135 441C569.668 443.8 567.635 446.067 565.035 447.8C562.502 449.533 559.602 450.8 556.335 451.6C553.068 452.4 549.702 452.8 546.235 452.8ZM649.574 452V394.5H627.974V381.2H685.674V394.5H663.974V452H649.574ZM773.547 452.8C766.614 452.8 760.914 451.5 756.447 448.9C752.047 446.3 748.78 442.567 746.647 437.7C744.58 432.833 743.547 427 743.547 420.2V381.2H757.847V420.9C757.847 424.1 758.314 427.133 759.247 430C760.247 432.8 761.88 435.1 764.147 436.9C766.48 438.633 769.647 439.5 773.647 439.5C777.714 439.5 780.847 438.633 783.047 436.9C785.247 435.1 786.78 432.767 787.647 429.9C788.514 427.033 788.947 424.033 788.947 420.9V381.2H803.247V420.2C803.247 426.933 802.214 432.767 800.147 437.7C798.08 442.567 794.847 446.3 790.447 448.9C786.047 451.5 780.414 452.8 773.547 452.8ZM867.777 452V381.2H894.477C901.877 381.2 908.177 382.6 913.377 385.4C918.644 388.2 922.644 392.233 925.377 397.5C928.177 402.767 929.577 409.2 929.577 416.8C929.577 424.267 928.211 430.633 925.477 435.9C922.811 441.1 918.877 445.1 913.677 447.9C908.477 450.633 902.111 452 894.577 452H867.777ZM882.077 438.8H894.477C899.411 438.8 903.377 437.867 906.377 436C909.377 434.133 911.577 431.533 912.977 428.2C914.377 424.867 915.077 421.033 915.077 416.7C915.077 412.5 914.377 408.733 912.977 405.4C911.644 402 909.444 399.333 906.377 397.4C903.377 395.467 899.311 394.5 894.177 394.5H882.077V438.8ZM990.824 452V381.2H1005.12V452H990.824ZM1101.12 452.8C1093.85 452.8 1087.59 451.267 1082.32 448.2C1077.12 445.133 1073.12 440.9 1070.32 435.5C1067.59 430.033 1066.22 423.767 1066.22 416.7C1066.22 409.5 1067.62 403.167 1070.42 397.7C1073.29 392.233 1077.35 388 1082.62 385C1087.89 381.933 1094.15 380.4 1101.42 380.4C1108.62 380.4 1114.82 381.9 1120.02 384.9C1125.22 387.9 1129.22 392.1 1132.02 397.5C1134.89 402.9 1136.32 409.2 1136.32 416.4C1136.32 423.467 1134.89 429.767 1132.02 435.3C1129.22 440.767 1125.19 445.067 1119.92 448.2C1114.72 451.267 1108.45 452.8 1101.12 452.8ZM1101.32 439.4C1106.12 439.4 1110.02 438.3 1113.02 436.1C1116.02 433.9 1118.19 431.067 1119.52 427.6C1120.92 424.133 1121.62 420.5 1121.62 416.7C1121.62 413.9 1121.22 411.133 1120.42 408.4C1119.69 405.667 1118.52 403.2 1116.92 401C1115.32 398.8 1113.22 397.067 1110.62 395.8C1108.02 394.467 1104.89 393.8 1101.22 393.8C1096.49 393.8 1092.62 394.9 1089.62 397.1C1086.62 399.233 1084.39 402.033 1082.92 405.5C1081.52 408.967 1080.82 412.667 1080.82 416.6C1080.82 420.533 1081.52 424.233 1082.92 427.7C1084.39 431.167 1086.62 434 1089.62 436.2C1092.69 438.333 1096.59 439.4 1101.32 439.4Z" fill="url(#paint0_linear_75_7)"/>
<defs>
<linearGradient id="paint0_linear_75_7" x1="826.005" y1="355" x2="826.005" y2="482.999" gradientUnits="userSpaceOnUse">
<stop stop-color="#F28D28"/>
<stop offset="1" stop-color="#FF3951"/>
</linearGradient>
</defs>
</svg>
