<svg width="1656" height="540" viewBox="0 0 1656 540" fill="none" xmlns="http://www.w3.org/2000/svg">
<path d="M74.2556 339L1.77759 31.728H79.8976L128.506 258.71L177.982 31.728H268.254L317.296 258.71L363.734 31.728H437.948L366.338 339H270.858L221.816 118.962L173.208 339H74.2556ZM602.847 342.472C571.31 342.472 543.968 335.962 520.821 322.942C497.964 309.633 480.315 291.26 467.873 267.824C455.432 244.099 449.211 216.757 449.211 185.798C449.211 153.971 455.577 126.34 468.307 102.904C481.327 79.1786 499.411 60.806 522.557 47.786C545.704 34.4767 573.046 27.822 604.583 27.822C635.542 27.822 662.45 34.332 685.307 47.352C708.454 60.372 726.393 78.6 739.123 102.036C752.143 125.183 758.653 152.525 758.653 184.062C758.653 215.021 752.288 242.507 739.557 266.522C726.827 290.247 708.743 308.909 685.307 322.508C662.161 335.817 634.674 342.472 602.847 342.472ZM604.149 276.07C623.824 276.07 639.737 271.585 651.889 262.616C664.041 253.647 672.866 242.218 678.363 228.33C683.861 214.442 686.609 200.265 686.609 185.798C686.609 175.093 685.018 164.387 681.835 153.682C678.942 142.977 674.168 133.139 667.513 124.17C661.148 115.201 652.757 107.967 642.341 102.47C631.925 96.9727 619.05 94.224 603.715 94.224C584.33 94.224 568.561 98.7087 556.409 107.678C544.257 116.358 535.288 127.642 529.501 141.53C524.004 155.418 521.255 170.029 521.255 185.364C521.255 200.699 524.149 215.31 529.935 229.198C535.722 243.086 544.691 254.37 556.843 263.05C569.285 271.73 585.053 276.07 604.149 276.07ZM803.504 339V31.728H930.232C944.699 31.728 959.021 33.1747 973.198 36.068C987.665 38.672 1000.83 43.5907 1012.69 50.824C1024.56 58.0573 1033.96 68.3286 1040.9 81.638C1048.14 94.658 1051.75 111.439 1051.75 131.982C1051.75 145.87 1049.44 158.745 1044.81 170.608C1040.18 182.471 1033.24 192.742 1023.98 201.422C1015.01 210.102 1003.58 216.901 989.69 221.82L1059.56 339H979.708L920.25 233.104H873.812V339H803.504ZM873.812 171.042H928.062C936.453 171.042 943.831 170.319 950.196 168.872C956.851 167.136 962.493 164.821 967.122 161.928C971.752 158.745 975.224 154.695 977.538 149.776C980.142 144.857 981.589 138.926 981.878 131.982C981.878 122.434 979.564 115.201 974.934 110.282C970.594 105.363 964.663 101.891 957.14 99.866C949.618 97.8407 940.938 96.828 931.1 96.828H873.812V171.042ZM1107.39 339V31.728H1177.7V274.334H1329.16V339H1107.39ZM1367.62 339V31.728H1485.67C1517.78 31.728 1545.42 37.6593 1568.56 49.522C1591.71 61.3846 1609.5 78.7446 1621.94 101.602C1634.67 124.459 1641.04 152.814 1641.04 186.666C1641.04 219.361 1634.96 247.137 1622.81 269.994C1610.66 292.562 1593.01 309.777 1569.86 321.64C1547.01 333.213 1519.09 339 1486.1 339H1367.62ZM1437.93 274.334H1486.54C1507.08 274.334 1523.28 270.573 1535.14 263.05C1547.3 255.527 1555.98 245.111 1561.18 231.802C1566.68 218.493 1569.43 203.158 1569.43 185.798C1569.43 169.017 1566.83 153.971 1561.62 140.662C1556.41 127.063 1547.58 116.358 1535.14 108.546C1522.99 100.734 1506.07 96.828 1484.37 96.828H1437.93V274.334Z" fill="#111111"/>
<path d="M361.741 509.8C354.474 509.8 348.274 508.333 343.141 505.4C338.074 502.4 334.208 498.2 331.541 492.8C328.941 487.4 327.641 481.1 327.641 473.9C327.641 466.567 328.974 460.167 331.641 454.7C334.374 449.233 338.274 445 343.341 442C348.408 438.933 354.508 437.4 361.641 437.4C367.041 437.4 371.874 438.333 376.141 440.2C380.408 442 383.841 444.7 386.441 448.3C389.108 451.833 390.774 456.2 391.441 461.4H377.641C376.774 458.133 375.008 455.567 372.341 453.7C369.741 451.767 366.274 450.8 361.941 450.8C357.141 450.8 353.308 451.9 350.441 454.1C347.641 456.233 345.608 459.033 344.341 462.5C343.074 465.9 342.441 469.5 342.441 473.3C342.441 477.233 343.108 480.967 344.441 484.5C345.774 488.033 347.874 490.9 350.741 493.1C353.674 495.3 357.508 496.4 362.241 496.4C365.041 496.4 367.541 496 369.741 495.2C371.941 494.333 373.741 493.1 375.141 491.5C376.608 489.9 377.608 488 378.141 485.8H392.441C391.841 490.933 390.108 495.3 387.241 498.9C384.374 502.5 380.741 505.233 376.341 507.1C371.941 508.9 367.074 509.8 361.741 509.8ZM476.928 509V438.2H505.428C508.961 438.2 512.328 438.567 515.528 439.3C518.794 439.967 521.728 441.133 524.328 442.8C526.928 444.467 528.961 446.8 530.428 449.8C531.961 452.733 532.728 456.5 532.728 461.1C532.728 464.5 532.161 467.567 531.028 470.3C529.894 473.033 528.228 475.367 526.028 477.3C523.828 479.233 521.194 480.733 518.128 481.8L533.828 509H517.728L503.928 484.1H491.228V509H476.928ZM491.228 471.4H504.428C506.494 471.4 508.361 471.233 510.028 470.9C511.761 470.5 513.228 469.9 514.428 469.1C515.694 468.3 516.661 467.233 517.328 465.9C518.061 464.567 518.428 462.933 518.428 461C518.494 458.533 517.961 456.633 516.828 455.3C515.761 453.9 514.228 452.933 512.228 452.4C510.294 451.8 507.994 451.5 505.328 451.5H491.228V471.4ZM619.873 509V438.2H670.873V451.5H634.173V467.5H665.673V480.3H634.173V495.8H670.873V509H619.873ZM748.582 509L776.182 438.2H792.182L819.482 509H804.082L799.682 496.9H768.382L763.982 509H748.582ZM772.982 484H795.182L784.182 453.4L772.982 484ZM911.096 509V451.5H889.496V438.2H947.196V451.5H925.496V509H911.096ZM1029.57 509V438.2H1043.87V509H1029.57ZM1151.77 509L1125.97 438.2H1141.57L1161.37 496.9L1180.77 438.2H1196.27L1170.57 509H1151.77ZM1278.35 509V438.2H1329.35V451.5H1292.65V467.5H1324.15V480.3H1292.65V495.8H1329.35V509H1278.35Z" fill="url(#paint0_linear_64_2)"/>
<defs>
<linearGradient id="paint0_linear_64_2" x1="828.509" y1="412" x2="828.509" y2="539.999" gradientUnits="userSpaceOnUse">
<stop stop-color="#F28D28"/>
<stop offset="1" stop-color="#FF3951"/>
</linearGradient>
</defs>
</svg>
